<svg width="30" height="30" viewBox="0 0 30 30" fill="none" xmlns="http://www.w3.org/2000/svg">
<path d="M3.53979 5.48322H4.17932C5.25326 5.48322 6.20162 6.18364 6.51746 7.2101L10.3474 19.6574C10.6632 20.6838 11.6116 21.3843 12.6856 21.3843H21.3893C22.4217 21.3843 23.3429 20.7361 23.6918 19.7645L26.2407 12.664C27.0988 10.2733 25.3271 7.75479 22.7869 7.75479H13.3251" stroke="#30373E" stroke-width="2.125" stroke-linecap="round"/>
<path d="M12.7134 27.5C13.7267 27.5 14.5481 26.6785 14.5481 25.6653C14.5481 24.652 13.7267 23.8305 12.7134 23.8305C11.7001 23.8305 10.8787 24.652 10.8787 25.6653C10.8787 26.6785 11.7001 27.5 12.7134 27.5Z" fill="#30373E"/>
<path d="M21.2755 27.5C22.2888 27.5 23.1103 26.6785 23.1103 25.6653C23.1103 24.652 22.2888 23.8305 21.2755 23.8305C20.2622 23.8305 19.4408 24.652 19.4408 25.6653C19.4408 26.6785 20.2622 27.5 21.2755 27.5Z" fill="#30373E"/>
</svg>
