<svg width="28" height="28" viewBox="0 0 28 28" fill="none" xmlns="http://www.w3.org/2000/svg">
<path d="M4.06934 24.3332C4.06934 20.734 5.929 17.7882 10.206 17.7882H17.7928C22.071 17.7882 23.9307 20.734 23.9307 24.3332M14 14.4818C14.6741 14.492 15.3435 14.3681 15.9692 14.1172C16.595 13.8663 17.1645 13.4935 17.6449 13.0204C18.1252 12.5473 18.5066 11.9834 18.7669 11.3615C19.0273 10.7397 19.1614 10.0722 19.1614 9.39808C19.1614 8.72392 19.0273 8.05649 18.7669 7.43462C18.5066 6.81275 18.1252 6.24887 17.6449 5.77579C17.1645 5.30271 16.595 4.92987 15.9692 4.67897C15.3435 4.42807 14.6741 4.30412 14 4.31433C12.665 4.33456 11.3916 4.87906 10.4547 5.83025C9.51784 6.78144 8.99268 8.06298 8.99268 9.39808C8.99268 10.7332 9.51784 12.0147 10.4547 12.9659C11.3916 13.9171 12.665 14.4616 14 14.4818Z" stroke="#30373E" stroke-width="2" stroke-miterlimit="10"/>
</svg>
